<svg width="288" height="160" viewBox="0 0 288 160" fill="none" xmlns="http://www.w3.org/2000/svg">
<path d="M28.0151 86.93L-5.7551 125.825C-5.91304 126.007 -6 126.24 -6 126.48V170C-6 170.552 -5.55229 171 -5 171H303C303.552 171 304 170.552 304 170V2.06551C304 1.09797 302.763 0.694415 302.192 1.47584L291.776 15.7429C291.376 16.29 290.56 16.29 290.161 15.7429L282.298 4.97411C281.899 4.42701 281.082 4.427 280.683 4.97411L203.712 110.397C203.313 110.944 202.496 110.944 202.097 110.397L129.846 11.4382C129.452 10.8989 128.65 10.8896 128.244 11.4196L88.0723 63.8458C87.6484 64.3989 86.8028 64.3598 86.4319 63.7698L75.7149 46.7236C75.3456 46.1364 74.5052 46.0943 74.0791 46.6417L37.378 93.8C36.9974 94.2891 36.268 94.3177 35.8502 93.8599L29.5089 86.9115C29.1056 86.4697 28.4073 86.4783 28.0151 86.93Z" fill="#199FB1" fill-opacity="0.1" stroke="#199FB1"/>
</svg>
